<svg xmlns="http://www.w3.org/2000/svg" xmlns:xlink="http://www.w3.org/1999/xlink" width="1342" zoomAndPan="magnify" viewBox="0 0 1006.07996 821.999993" height="1096" preserveAspectRatio="xMidYMid meet" version="1.0"><defs><clipPath id="bbbf7e8fb8"><path d="M 223 521 L 845.996094 521 L 845.996094 719 L 223 719 Z M 223 521 " clip-rule="nonzero"/></clipPath><clipPath id="d7b4589ff2"><path d="M 116.910156 534 L 511 534 L 511 571 L 116.910156 571 Z M 116.910156 534 " clip-rule="nonzero"/></clipPath><clipPath id="5e957d97a4"><path d="M 204 104 L 785 104 L 785 539 L 204 539 Z M 204 104 " clip-rule="nonzero"/></clipPath><clipPath id="196dbfbc8e"><path d="M 242.707031 538.484375 L 231.453125 516.714844 C 226.367188 509.824219 218.953125 486.527344 209.210938 446.828125 C 206.257812 430.71875 204.675781 414.472656 204.46875 398.09375 C 204.09375 365.105469 209.160156 332.972656 219.664062 301.699219 C 224.898438 286.179688 231.402344 271.207031 239.167969 256.785156 C 241.644531 248.585938 255.867188 228.703125 281.832031 197.136719 C 304.285156 172.972656 330.09375 153.175781 359.25 137.753906 C 373.738281 130.113281 388.765625 123.746094 404.328125 118.648438 C 419.894531 113.554688 435.777344 109.804688 451.976562 107.394531 L 476.339844 104.824219 C 509.449219 102.71875 542.28125 106.300781 574.839844 115.570312 C 590.910156 120.199219 606.464844 126.171875 621.503906 133.488281 C 636.539062 140.804688 650.839844 149.359375 664.398438 159.144531 L 684.03125 174.648438 C 709.519531 196.683594 730.570312 222.359375 747.183594 251.675781 C 797.535156 347.527344 797.238281 443.226562 746.300781 538.773438 L 242.707031 538.484375 " clip-rule="nonzero"/></clipPath><linearGradient x1="353.992302" gradientTransform="matrix(1.751018, 0, 0, 1.75137, -148.12536, -731.392848)" y1="744.286054" x2="325.25899" gradientUnits="userSpaceOnUse" y2="463.560305" id="13694b009b"><stop stop-opacity="1" stop-color="rgb(75.569153%, 21.234131%, 8.480835%)" offset="0"/><stop stop-opacity="1" stop-color="rgb(75.769043%, 21.656799%, 8.392334%)" offset="0.00390625"/><stop stop-opacity="1" stop-color="rgb(75.968933%, 22.079468%, 8.305359%)" offset="0.0078125"/><stop stop-opacity="1" stop-color="rgb(76.168823%, 22.502136%, 8.216858%)" offset="0.0117187"/><stop stop-opacity="1" stop-color="rgb(76.370239%, 22.924805%, 8.129883%)" offset="0.015625"/><stop stop-opacity="1" stop-color="rgb(76.570129%, 23.347473%, 8.041382%)" offset="0.0195313"/><stop stop-opacity="1" stop-color="rgb(76.771545%, 23.771667%, 7.952881%)" offset="0.0234375"/><stop stop-opacity="1" stop-color="rgb(76.971436%, 24.194336%, 7.86438%)" offset="0.0273437"/><stop stop-opacity="1" stop-color="rgb(77.172852%, 24.617004%, 7.777405%)" offset="0.03125"/><stop stop-opacity="1" stop-color="rgb(77.372742%, 25.039673%, 7.688904%)" offset="0.0351562"/><stop stop-opacity="1" stop-color="rgb(77.574158%, 25.462341%, 7.601929%)" offset="0.0390625"/><stop stop-opacity="1" stop-color="rgb(77.774048%, 25.88501%, 7.513428%)" offset="0.0429688"/><stop stop-opacity="1" stop-color="rgb(77.975464%, 26.309204%, 7.424927%)" offset="0.046875"/><stop stop-opacity="1" stop-color="rgb(78.175354%, 26.731873%, 7.336426%)" offset="0.0507812"/><stop stop-opacity="1" stop-color="rgb(78.375244%, 27.154541%, 7.249451%)" offset="0.0546875"/><stop stop-opacity="1" stop-color="rgb(78.575134%, 27.577209%, 7.16095%)" offset="0.0585937"/><stop stop-opacity="1" stop-color="rgb(78.77655%, 27.999878%, 7.073975%)" offset="0.0625"/><stop stop-opacity="1" stop-color="rgb(78.97644%, 28.422546%, 6.985474%)" offset="0.0664062"/><stop stop-opacity="1" stop-color="rgb(79.177856%, 28.845215%, 6.896973%)" offset="0.0703125"/><stop stop-opacity="1" stop-color="rgb(79.377747%, 29.267883%, 6.808472%)" offset="0.0742188"/><stop stop-opacity="1" stop-color="rgb(79.579163%, 29.692078%, 6.721497%)" offset="0.078125"/><stop stop-opacity="1" stop-color="rgb(79.779053%, 30.114746%, 6.632996%)" offset="0.0820312"/><stop stop-opacity="1" stop-color="rgb(79.980469%, 30.537415%, 6.546021%)" offset="0.0859375"/><stop stop-opacity="1" stop-color="rgb(80.180359%, 30.960083%, 6.45752%)" offset="0.0898437"/><stop stop-opacity="1" stop-color="rgb(80.381775%, 31.382751%, 6.369019%)" offset="0.09375"/><stop stop-opacity="1" stop-color="rgb(80.581665%, 31.80542%, 6.280518%)" offset="0.0976562"/><stop stop-opacity="1" stop-color="rgb(80.783081%, 32.229614%, 6.193542%)" offset="0.101562"/><stop stop-opacity="1" stop-color="rgb(80.982971%, 32.652283%, 6.105042%)" offset="0.105469"/><stop stop-opacity="1" stop-color="rgb(81.182861%, 33.074951%, 6.018066%)" offset="0.109375"/><stop stop-opacity="1" stop-color="rgb(81.382751%, 33.49762%, 5.929565%)" offset="0.113281"/><stop stop-opacity="1" stop-color="rgb(81.584167%, 33.920288%, 5.841064%)" offset="0.117187"/><stop stop-opacity="1" stop-color="rgb(81.784058%, 34.342957%, 5.752563%)" offset="0.121094"/><stop stop-opacity="1" stop-color="rgb(81.985474%, 34.767151%, 5.665588%)" offset="0.125"/><stop stop-opacity="1" stop-color="rgb(82.185364%, 35.189819%, 5.577087%)" offset="0.128906"/><stop stop-opacity="1" stop-color="rgb(82.38678%, 35.612488%, 5.490112%)" offset="0.132813"/><stop stop-opacity="1" stop-color="rgb(82.58667%, 36.035156%, 5.401611%)" offset="0.136719"/><stop stop-opacity="1" stop-color="rgb(82.788086%, 36.457825%, 5.31311%)" offset="0.140625"/><stop stop-opacity="1" stop-color="rgb(82.987976%, 36.880493%, 5.224609%)" offset="0.144531"/><stop stop-opacity="1" stop-color="rgb(83.189392%, 37.304688%, 5.137634%)" offset="0.148438"/><stop stop-opacity="1" stop-color="rgb(83.389282%, 37.727356%, 5.049133%)" offset="0.152344"/><stop stop-opacity="1" stop-color="rgb(83.590698%, 38.150024%, 4.962158%)" offset="0.15625"/><stop stop-opacity="1" stop-color="rgb(83.790588%, 38.572693%, 4.873657%)" offset="0.160156"/><stop stop-opacity="1" stop-color="rgb(83.990479%, 38.995361%, 4.785156%)" offset="0.164062"/><stop stop-opacity="1" stop-color="rgb(84.190369%, 39.41803%, 4.696655%)" offset="0.167969"/><stop stop-opacity="1" stop-color="rgb(84.391785%, 39.840698%, 4.60968%)" offset="0.171875"/><stop stop-opacity="1" stop-color="rgb(84.591675%, 40.263367%, 4.521179%)" offset="0.175781"/><stop stop-opacity="1" stop-color="rgb(84.793091%, 40.687561%, 4.434204%)" offset="0.179688"/><stop stop-opacity="1" stop-color="rgb(84.992981%, 41.110229%, 4.345703%)" offset="0.183594"/><stop stop-opacity="1" stop-color="rgb(85.194397%, 41.532898%, 4.257202%)" offset="0.1875"/><stop stop-opacity="1" stop-color="rgb(85.394287%, 41.955566%, 4.168701%)" offset="0.191406"/><stop stop-opacity="1" stop-color="rgb(85.595703%, 42.378235%, 4.081726%)" offset="0.195313"/><stop stop-opacity="1" stop-color="rgb(85.795593%, 42.800903%, 3.993225%)" offset="0.199219"/><stop stop-opacity="1" stop-color="rgb(85.997009%, 43.225098%, 3.90625%)" offset="0.203125"/><stop stop-opacity="1" stop-color="rgb(86.196899%, 43.647766%, 3.817749%)" offset="0.207031"/><stop stop-opacity="1" stop-color="rgb(86.39679%, 44.070435%, 3.729248%)" offset="0.210937"/><stop stop-opacity="1" stop-color="rgb(86.59668%, 44.493103%, 3.640747%)" offset="0.214844"/><stop stop-opacity="1" stop-color="rgb(86.798096%, 44.915771%, 3.553772%)" offset="0.21875"/><stop stop-opacity="1" stop-color="rgb(86.997986%, 45.33844%, 3.465271%)" offset="0.222656"/><stop stop-opacity="1" stop-color="rgb(87.199402%, 45.762634%, 3.378296%)" offset="0.226562"/><stop stop-opacity="1" stop-color="rgb(87.399292%, 46.185303%, 3.289795%)" offset="0.230469"/><stop stop-opacity="1" stop-color="rgb(87.600708%, 46.607971%, 3.201294%)" offset="0.234375"/><stop stop-opacity="1" stop-color="rgb(87.800598%, 47.03064%, 3.112793%)" offset="0.238281"/><stop stop-opacity="1" stop-color="rgb(88.002014%, 47.453308%, 3.025818%)" offset="0.242188"/><stop stop-opacity="1" stop-color="rgb(88.201904%, 47.875977%, 2.937317%)" offset="0.246094"/><stop stop-opacity="1" stop-color="rgb(88.40332%, 48.300171%, 2.850342%)" offset="0.25"/><stop stop-opacity="1" stop-color="rgb(88.60321%, 48.722839%, 2.761841%)" offset="0.253906"/><stop stop-opacity="1" stop-color="rgb(88.804626%, 49.145508%, 2.67334%)" offset="0.257812"/><stop stop-opacity="1" stop-color="rgb(89.004517%, 49.568176%, 2.584839%)" offset="0.261719"/><stop stop-opacity="1" stop-color="rgb(89.204407%, 49.990845%, 2.497864%)" offset="0.265625"/><stop stop-opacity="1" stop-color="rgb(89.404297%, 50.413513%, 2.409363%)" offset="0.269531"/><stop stop-opacity="1" stop-color="rgb(89.605713%, 50.836182%, 2.322388%)" offset="0.273437"/><stop stop-opacity="1" stop-color="rgb(89.805603%, 51.25885%, 2.233887%)" offset="0.277344"/><stop stop-opacity="1" stop-color="rgb(90.007019%, 51.683044%, 2.145386%)" offset="0.28125"/><stop stop-opacity="1" stop-color="rgb(90.206909%, 52.105713%, 2.056885%)" offset="0.285156"/><stop stop-opacity="1" stop-color="rgb(90.408325%, 52.528381%, 1.96991%)" offset="0.289062"/><stop stop-opacity="1" stop-color="rgb(90.608215%, 52.95105%, 1.881409%)" offset="0.292969"/><stop stop-opacity="1" stop-color="rgb(90.809631%, 53.373718%, 1.794434%)" offset="0.296875"/><stop stop-opacity="1" stop-color="rgb(91.009521%, 53.796387%, 1.705933%)" offset="0.300781"/><stop stop-opacity="1" stop-color="rgb(91.210938%, 54.220581%, 1.617432%)" offset="0.304687"/><stop stop-opacity="1" stop-color="rgb(91.410828%, 54.64325%, 1.528931%)" offset="0.308594"/><stop stop-opacity="1" stop-color="rgb(91.610718%, 55.065918%, 1.441956%)" offset="0.3125"/><stop stop-opacity="1" stop-color="rgb(91.810608%, 55.488586%, 1.353455%)" offset="0.316406"/><stop stop-opacity="1" stop-color="rgb(92.012024%, 55.911255%, 1.266479%)" offset="0.320312"/><stop stop-opacity="1" stop-color="rgb(92.211914%, 56.333923%, 1.177979%)" offset="0.324219"/><stop stop-opacity="1" stop-color="rgb(92.41333%, 56.758118%, 1.089478%)" offset="0.328125"/><stop stop-opacity="1" stop-color="rgb(92.61322%, 57.180786%, 1.000977%)" offset="0.332031"/><stop stop-opacity="1" stop-color="rgb(92.814636%, 57.603455%, 0.914001%)" offset="0.335938"/><stop stop-opacity="1" stop-color="rgb(93.014526%, 58.026123%, 0.8255%)" offset="0.339844"/><stop stop-opacity="1" stop-color="rgb(93.215942%, 58.448792%, 0.738525%)" offset="0.34375"/><stop stop-opacity="1" stop-color="rgb(93.415833%, 58.87146%, 0.650024%)" offset="0.347656"/><stop stop-opacity="1" stop-color="rgb(93.617249%, 59.294128%, 0.561523%)" offset="0.351562"/><stop stop-opacity="1" stop-color="rgb(93.817139%, 59.716797%, 0.473022%)" offset="0.355469"/><stop stop-opacity="1" stop-color="rgb(94.018555%, 60.140991%, 0.386047%)" offset="0.359375"/><stop stop-opacity="1" stop-color="rgb(94.218445%, 60.56366%, 0.297546%)" offset="0.363281"/><stop stop-opacity="1" stop-color="rgb(94.418335%, 60.986328%, 0.210571%)" offset="0.367187"/><stop stop-opacity="1" stop-color="rgb(94.618225%, 61.408997%, 0.12207%)" offset="0.371094"/><stop stop-opacity="1" stop-color="rgb(94.819641%, 61.831665%, 0.0335693%)" offset="0.375"/><stop stop-opacity="1" stop-color="rgb(94.859314%, 61.915588%, 0.0167847%)" offset="0.5"/><stop stop-opacity="1" stop-color="rgb(94.898987%, 61.999512%, 0%)" offset="0.877713"/><stop stop-opacity="1" stop-color="rgb(94.898987%, 61.999512%, 0%)" offset="1"/></linearGradient></defs><g clip-path="url(#bbbf7e8fb8)"><path fill="#45a4d9" d="M 613.066406 522.238281 L 590.84375 523.96875 C 493.894531 530.839844 382.207031 534.542969 255.851562 537.898438 C 232.707031 538.511719 221.835938 541.296875 223.109375 543.449219 C 222.996094 544.027344 224.035156 544.429688 226.234375 544.527344 C 252.964844 545.714844 270.941406 547.011719 280.164062 548.496094 C 283.679688 549.058594 286.214844 550.410156 287.820312 552.558594 C 288.488281 553.449219 288.023438 554.800781 285.863281 555.519531 C 253.859375 566.164062 236.628906 571.890625 234.550781 573.875 C 229.777344 576.046875 226.679688 579.179688 225.265625 583.277344 C 225.171875 586.222656 228.175781 588.601562 234.359375 590.050781 C 242.097656 591.867188 264.976562 595.035156 302.875 600.171875 C 306.691406 600.691406 310.429688 602.042969 314.128906 603.964844 C 315.414062 605.167969 314.84375 606.53125 312.1875 607.460938 C 295.042969 613.464844 285.640625 616.949219 283.890625 618.109375 C 278.796875 621.484375 278.722656 624.867188 283.945312 628.6875 L 421.878906 656.65625 C 441.636719 660.96875 455.3125 665.703125 462.90625 670.851562 C 466.679688 676.144531 466.957031 679.390625 463.691406 680.464844 C 436.316406 689.472656 417.660156 695.890625 408.035156 700.445312 C 399.183594 704.632812 394.429688 708.9375 394.613281 712.769531 C 394.78125 716.285156 397.320312 718.15625 401.054688 718.863281 C 409.902344 720.53125 616.613281 705.359375 621.984375 703.042969 C 625.898438 699.867188 625.585938 697.757812 620.992188 697.042969 C 593.039062 692.691406 562.824219 689.359375 530.425781 686.472656 C 526.054688 686.082031 524.96875 685.421875 527.152344 684.738281 L 693.164062 661.683594 C 715.65625 658.183594 727.398438 655.925781 728.460938 654.980469 C 731.171875 652.570312 730.3125 649.574219 725.121094 648.914062 C 690.414062 644.503906 650.90625 643.578125 606.933594 643.210938 C 605.511719 643.199219 604.855469 642.796875 604.96875 641.886719 C 690.949219 627.605469 738.082031 618.761719 746.363281 615.351562 C 752.199219 610.542969 752.15625 607.65625 746.234375 606.660156 C 716.578125 601.6875 689.511719 598.550781 665.03125 597.128906 C 663.382812 597.03125 662.78125 596.628906 663.207031 596.082031 L 773.449219 586.4375 C 787.433594 584.851562 794.980469 583.671875 796.132812 582.960938 C 798.71875 581.363281 798.128906 579.941406 794.320312 578.625 L 711.636719 574.171875 C 707.839844 573.832031 706.335938 572.714844 707.121094 570.820312 C 775.578125 556.515625 811.511719 548.644531 815.03125 547.542969 C 835.90625 541.011719 846.011719 536.59375 845.78125 533.882812 C 845.5625 531.289062 844.851562 529.554688 843.011719 529.46875 C 818.222656 528.300781 795.53125 528.378906 774.972656 528.949219 C 767.09375 526.285156 751.988281 524.769531 729.722656 523.203125 C 717.003906 522.308594 678.152344 521.589844 613.066406 522.238281 Z M 613.066406 522.238281 " fill-opacity="1" fill-rule="nonzero"/></g><path fill="#45a4d9" d="M 516.210938 626.773438 L 510.128906 627.722656 C 494.289062 630.171875 481.515625 631.929688 471.8125 633 C 418.324219 638.179688 383.777344 641.757812 368.179688 643.738281 C 354.59375 645.324219 325.550781 649.574219 281.050781 656.488281 C 276.769531 657.226562 273.019531 658.085938 269.800781 659.0625 C 266.578125 660.039062 263.886719 661.132812 261.722656 662.347656 L 258.875 664.257812 C 255.496094 666.867188 254.460938 670.0625 255.777344 673.84375 C 257.574219 677.382812 262.945312 680.183594 271.890625 682.25 C 278.59375 684.199219 293.355469 685.652344 316.183594 686.605469 C 329.96875 687.050781 344.863281 687.296875 360.871094 687.339844 L 532.046875 685.757812 L 516.210938 626.773438 " fill-opacity="1" fill-rule="nonzero"/><path fill="#45a4d9" d="M 156.757812 581.15625 L 153.933594 581.273438 C 148.800781 581.414062 145.207031 582.023438 143.15625 583.097656 C 139.414062 586.28125 139.15625 589.238281 142.378906 591.96875 C 146.125 594.582031 153.425781 597.132812 164.28125 599.613281 C 179.410156 602.6875 189.554688 604.511719 194.714844 605.085938 L 228.753906 609.492188 C 235.28125 610.199219 245.414062 611.132812 259.15625 612.292969 C 300.382812 615.78125 374.082031 621.328125 480.246094 628.9375 L 419.871094 586.960938 L 413.777344 585.691406 C 390.050781 582.5 304.375 580.988281 156.757812 581.15625 " fill-opacity="1" fill-rule="nonzero"/><g clip-path="url(#d7b4589ff2)"><path fill="#45a4d9" d="M 128.429688 534.597656 L 126.207031 534.742188 C 120.601562 535.304688 117.527344 537.316406 116.984375 540.777344 C 118.363281 543.195312 122.101562 545.878906 128.199219 548.824219 C 140.089844 553.492188 160.257812 557.222656 188.714844 560.019531 C 212.847656 562.542969 250.519531 564.632812 301.734375 566.289062 C 319.136719 566.90625 388.589844 568.4375 510.089844 570.886719 L 432.960938 565.070312 C 363.453125 555.921875 323.433594 550.875 312.898438 549.929688 C 288.324219 547.121094 265.152344 544.675781 243.382812 542.601562 C 200.242188 538.445312 161.921875 535.777344 128.429688 534.597656 " fill-opacity="1" fill-rule="nonzero"/></g><path fill="#45a4d9" d="M 365.398438 609.035156 L 359.777344 609.242188 C 331.46875 610.617188 303.433594 612.644531 275.671875 615.328125 C 233.859375 619.613281 189.390625 624.921875 142.261719 631.257812 C 133.273438 632.546875 128.925781 634.550781 129.222656 637.269531 C 128.699219 640.164062 131.917969 641.917969 138.875 642.523438 C 144.707031 643.390625 159.902344 643.828125 184.457031 643.84375 L 403.429688 642 C 506.558594 641.75 569.714844 641.882812 592.898438 642.394531 L 393 609.300781 C 384.898438 608.707031 375.695312 608.621094 365.398438 609.035156 " fill-opacity="1" fill-rule="nonzero"/><g clip-path="url(#5e957d97a4)"><g clip-path="url(#196dbfbc8e)"><path fill="url(#13694b009b)" d="M 204.09375 102.71875 L 204.09375 538.773438 L 797.535156 538.773438 L 797.535156 102.71875 Z M 204.09375 102.71875 " fill-rule="nonzero"/></g></g><path fill="#000000" d="M 814.4375 429.554688 L 806.683594 432.574219 C 786.578125 440.566406 768.902344 449.027344 753.652344 457.957031 C 751.777344 458.792969 747.574219 460.125 741.039062 461.949219 C 737.601562 462.589844 733.921875 462.332031 729.996094 461.175781 C 726.320312 460.113281 719.636719 457.03125 709.933594 451.933594 C 703.644531 451.636719 698.914062 452.082031 695.742188 453.277344 C 679.441406 461.617188 668.414062 467.507812 662.652344 470.949219 L 635.644531 493.644531 C 633.375 493.933594 630.847656 493.710938 628.058594 492.976562 L 606.289062 485.96875 C 596.621094 484.542969 590.109375 484.351562 586.753906 485.398438 C 571.378906 493 556.921875 503.746094 543.386719 517.640625 C 539.488281 518.417969 534.710938 518.046875 529.050781 516.523438 C 514.105469 510.652344 504.683594 507.410156 500.792969 506.792969 C 495.160156 505.964844 488.621094 506.355469 481.171875 507.960938 C 472.007812 511.339844 463.765625 515.128906 456.449219 519.332031 C 450.441406 522.253906 442.734375 528.152344 433.335938 537.027344 L 780.007812 538.144531 C 778.785156 535.898438 784.136719 523.46875 796.058594 500.859375 C 796.3125 495.46875 796.066406 491.90625 795.328125 490.171875 C 786.097656 485.316406 781.890625 480.5 782.707031 475.722656 C 783.460938 473.71875 784.605469 471.738281 786.144531 469.777344 C 799.972656 458.023438 808.027344 450.144531 810.304688 446.140625 C 816.957031 436.269531 818.335938 430.742188 814.4375 429.554688 " fill-opacity="1" fill-rule="nonzero"/><path fill="#000000" d="M 381.6875 439.78125 L 375.996094 440.292969 C 361.039062 442.386719 347.871094 450.363281 336.488281 464.214844 C 333.089844 469.136719 327.035156 480.171875 318.320312 497.328125 C 315.316406 503.753906 313.003906 509.558594 311.378906 514.746094 C 308.128906 525.117188 307.640625 533.003906 309.910156 538.410156 L 495.75 536.730469 C 497.789062 533.167969 498.984375 529.398438 499.324219 525.425781 C 500.058594 522.558594 499.160156 517.273438 496.625 509.5625 C 492.65625 501.972656 489.035156 496.605469 485.753906 493.46875 C 479.652344 485.917969 472.496094 478.476562 464.285156 471.136719 C 459.203125 465.25 444.148438 456.398438 419.117188 444.574219 C 415.210938 443.234375 402.734375 441.636719 381.6875 439.78125 " fill-opacity="1" fill-rule="nonzero"/><path fill="#000000" d="M 516.570312 470.253906 L 512.738281 470.527344 C 507.652344 471.101562 502.632812 472.480469 497.6875 474.671875 C 495.214844 475.769531 492.761719 477.066406 490.324219 478.570312 C 488.972656 479.183594 485.464844 481.773438 479.804688 486.339844 C 475.167969 490.832031 471.269531 495.867188 468.113281 501.445312 C 466.589844 504.269531 465.683594 508.386719 465.386719 513.789062 L 569.296875 525.535156 C 571.171875 523.714844 572.417969 520.851562 573.035156 516.945312 C 573.34375 514.992188 573.496094 512.78125 573.492188 510.304688 C 573.203125 503.664062 572.84375 499.363281 572.410156 497.410156 L 548.53125 486.195312 C 546.804688 485.289062 540.296875 480.988281 529.003906 473.300781 L 527.886719 472.753906 C 523.65625 470.6875 519.882812 469.851562 516.570312 470.253906 " fill-opacity="1" fill-rule="nonzero"/><path fill="#000000" d="M 391.757812 432.3125 L 390.28125 432.453125 C 385.816406 433.109375 377.203125 435.933594 364.441406 440.925781 C 361.027344 440.753906 353.042969 442.238281 340.488281 445.382812 C 336.855469 446.859375 333.332031 448.972656 329.917969 451.722656 C 328.03125 453.324219 326.492188 455.101562 325.296875 457.054688 C 324.207031 458.421875 323.253906 461.140625 322.445312 465.210938 L 321.378906 491.953125 C 323.925781 503.8125 325.617188 513.238281 326.457031 520.226562 C 326.765625 525.191406 325.964844 530.089844 324.058594 534.929688 L 417.550781 454.574219 C 417.351562 451.804688 416.609375 448.378906 415.320312 444.300781 C 414.519531 442.15625 413.550781 440.492188 412.421875 439.300781 C 407.15625 435.484375 400.269531 433.15625 391.757812 432.3125 " fill-opacity="1" fill-rule="nonzero"/><path fill="#000000" d="M 716.535156 313.53125 L 716.019531 313.582031 C 714.710938 313.800781 713.933594 314.699219 713.691406 316.285156 C 714.273438 322.78125 714.664062 329.097656 714.871094 335.230469 C 715.082031 341.363281 715.101562 347.316406 714.933594 353.085938 L 714.546875 361.601562 C 713.839844 372.773438 712.390625 383.21875 710.191406 392.9375 C 708.386719 400.972656 706.128906 408.527344 703.421875 415.601562 L 681.5625 465.421875 C 680.417969 468.480469 679.882812 470.511719 679.957031 471.515625 C 679.882812 471.824219 680.074219 472.070312 680.523438 472.25 L 725.617188 469.0625 C 720.207031 452.117188 717.597656 439.347656 717.785156 430.757812 C 718 423.671875 718.742188 415.644531 720.007812 406.667969 C 722.757812 387.285156 725.5 370.050781 728.238281 354.960938 C 728.753906 347.476562 729.125 336.011719 729.34375 320.570312 C 728.632812 315.753906 724.363281 313.410156 716.535156 313.53125 " fill-opacity="1" fill-rule="nonzero"/><path fill="#000000" d="M 593.300781 339.230469 L 593.191406 339.242188 C 592.914062 339.296875 592.796875 339.535156 592.828125 339.953125 L 593.78125 344.210938 C 593.898438 345.074219 594.855469 348.332031 596.652344 353.976562 L 598.410156 359.144531 L 607.046875 381.46875 C 608.296875 384.792969 609.347656 387.898438 610.199219 390.792969 C 610.734375 392.257812 612.359375 399.292969 615.070312 411.902344 C 616.535156 419.261719 617.523438 424.804688 618.039062 428.523438 L 624.480469 486.789062 C 625.101562 492.320312 625.8125 496.582031 626.613281 499.574219 L 653.222656 507.871094 C 651.328125 502.640625 649.601562 496.691406 648.035156 490.015625 C 641.070312 457.714844 637.097656 439.773438 636.117188 436.191406 C 635.09375 432.050781 632.65625 423.660156 628.800781 411.011719 C 624.503906 392.589844 621.640625 381.40625 620.214844 377.464844 C 618.359375 372.535156 616.695312 368.597656 615.222656 365.652344 C 614.558594 363.699219 611.847656 359.234375 607.082031 352.257812 C 603.234375 347.027344 598.640625 342.683594 593.300781 339.230469 " fill-opacity="1" fill-rule="nonzero"/><path fill="#000000" d="M 469.027344 329.675781 C 466.445312 329.757812 464.042969 331.371094 463.078125 333.941406 C 456.730469 350.828125 449.5625 363.964844 441.574219 373.355469 L 441.453125 373.5 C 438.804688 376.804688 436.191406 379.546875 433.621094 381.730469 L 433.613281 381.730469 C 421.113281 391.621094 409.859375 401.40625 399.855469 411.078125 L 399.832031 411.097656 C 393.316406 417.457031 387.972656 423.894531 383.808594 430.410156 C 383.707031 430.570312 383.613281 430.734375 383.527344 430.898438 C 373.121094 450.753906 370.578125 468.320312 375.894531 483.59375 C 376.867188 486.378906 379.523438 488.101562 382.324219 488.011719 C 382.972656 487.988281 383.632812 487.871094 384.277344 487.644531 C 387.710938 486.449219 389.527344 482.695312 388.332031 479.261719 C 384.292969 467.660156 386.519531 453.6875 395.015625 437.347656 L 395.003906 437.347656 C 398.605469 431.742188 403.273438 426.140625 409.003906 420.546875 C 418.746094 411.132812 429.730469 401.589844 441.960938 391.917969 L 442.140625 391.769531 C 445.3125 389.078125 448.46875 385.785156 451.605469 381.890625 L 451.601562 381.890625 C 460.582031 371.332031 468.515625 356.894531 475.402344 338.574219 C 476.679688 335.171875 474.960938 331.375 471.554688 330.09375 C 470.722656 329.78125 469.867188 329.648438 469.027344 329.675781 Z M 469.027344 329.675781 " fill-opacity="1" fill-rule="nonzero"/><path fill="#000000" d="M 716.050781 315.445312 L 714.773438 315.550781 C 713.5625 315.523438 711.078125 316.382812 707.3125 318.128906 C 703.203125 320.304688 700.214844 322.359375 698.355469 324.289062 C 696.066406 326.402344 694.050781 328.757812 692.300781 331.363281 C 690.851562 333.25 689.074219 336.816406 686.960938 342.054688 L 685.480469 346.765625 L 684.378906 351.773438 L 683.660156 357.078125 L 683.320312 362.675781 L 683.359375 368.570312 L 683.78125 374.753906 L 684.582031 381.238281 L 685.828125 388.335938 C 686 389.140625 686.171875 389.542969 686.34375 389.535156 C 686.523438 389.464844 686.667969 389.171875 686.78125 388.664062 C 687.390625 381.34375 687.90625 377.269531 688.328125 376.445312 C 689.210938 374.875 690.949219 373.40625 693.539062 372.027344 C 693.792969 371.789062 694.121094 371.144531 694.53125 370.101562 C 694.960938 368.90625 695.472656 364.023438 696.070312 355.449219 C 696.523438 353.90625 697.550781 351.757812 699.15625 349 C 699.570312 348.082031 700.015625 346.9375 700.5 345.566406 C 701.089844 343.84375 702.335938 339.125 704.234375 331.40625 L 705.179688 329.023438 C 705.671875 327.996094 706.28125 327.03125 707.007812 326.125 C 707.222656 325.597656 708.574219 324.375 711.058594 322.453125 C 713.207031 321.003906 715.824219 319.792969 718.910156 318.824219 L 718.136719 315.582031 L 716.050781 315.445312 " fill-opacity="1" fill-rule="nonzero"/><path fill="#000000" d="M 727.980469 314.933594 L 726.917969 314.980469 C 724.082031 315.15625 721.238281 315.648438 718.386719 316.46875 L 724.230469 317.960938 C 725.382812 317.929688 726.5625 318.027344 727.769531 318.257812 C 728.972656 318.488281 730.207031 318.851562 731.46875 319.34375 C 733.296875 319.789062 736.621094 321.847656 741.4375 325.523438 C 742.585938 326.839844 743.386719 328.207031 743.84375 329.625 C 744.332031 330.933594 745.023438 334.5625 745.914062 340.515625 L 746.722656 343.28125 C 747.566406 344.355469 748.988281 345.609375 750.988281 347.046875 C 751.46875 347.609375 751.890625 348.554688 752.25 349.878906 C 752.527344 350.988281 752.632812 352.265625 752.570312 353.710938 L 751.617188 367.945312 C 751.59375 368.609375 751.953125 370.046875 752.699219 372.257812 C 752.800781 372.75 752.832031 373.582031 752.789062 374.757812 C 752.898438 375.277344 751.867188 383.507812 749.699219 399.453125 C 749.519531 401.421875 749.460938 402.542969 749.523438 402.8125 C 749.558594 403.375 749.65625 403.667969 749.820312 403.691406 C 750.292969 403.621094 750.777344 403.058594 751.273438 402.007812 C 754.835938 393.652344 757.164062 388.070312 758.253906 385.265625 C 761.328125 377.273438 763.351562 371.148438 764.328125 366.890625 C 765.667969 361.574219 766.25 357.226562 766.082031 353.839844 C 766.039062 349.898438 765.488281 345.8125 764.4375 341.582031 C 762.417969 333.308594 757.875 326.710938 750.800781 321.789062 C 743.15625 316.769531 735.546875 314.484375 727.980469 314.933594 " fill-opacity="1" fill-rule="nonzero"/><path fill="#000000" d="M 743.730469 311.027344 L 743.085938 311.054688 C 737.523438 311.417969 732.894531 312.550781 729.203125 314.453125 C 726.898438 315.65625 725.21875 317.121094 724.164062 318.84375 L 723.492188 320.183594 L 723.890625 322.136719 C 731.507812 320.589844 736.789062 319.832031 739.742188 319.859375 C 742.675781 319.660156 745.914062 320.085938 749.457031 321.132812 C 755.34375 322.425781 761.695312 326.410156 768.511719 333.082031 C 770.511719 335.226562 772.425781 339.070312 774.246094 344.613281 C 777.761719 347.992188 779.601562 350.621094 779.765625 352.496094 C 780.152344 353.863281 780.09375 358.816406 779.585938 367.363281 C 779.726562 368.082031 780.582031 369.046875 782.15625 370.257812 C 782.398438 370.613281 782.542969 371.070312 782.582031 371.625 L 781.351562 381.949219 C 785.792969 371.097656 788.207031 361.484375 788.597656 353.113281 C 788.726562 350.324219 788.632812 347.671875 788.308594 345.15625 L 787.660156 341.488281 C 787.027344 338.519531 786.082031 335.746094 784.832031 333.179688 C 783.582031 330.609375 782.023438 328.242188 780.15625 326.078125 C 778.289062 323.910156 776.117188 321.945312 773.632812 320.183594 L 769.675781 317.6875 C 760.898438 312.984375 752.25 310.765625 743.730469 311.027344 " fill-opacity="1" fill-rule="nonzero"/><path fill="#000000" d="M 770.105469 284.742188 L 766.625 284.992188 C 757.394531 286.015625 748.570312 289.917969 740.148438 296.703125 C 738.222656 298.335938 736.496094 300 734.964844 301.699219 L 732.824219 304.273438 C 731.496094 306.003906 730.371094 307.769531 729.441406 309.570312 C 727.585938 313.167969 726.53125 316.898438 726.277344 320.761719 C 728.871094 317.785156 731.3125 315.136719 733.601562 312.8125 C 735.886719 310.488281 738.015625 308.492188 739.992188 306.820312 L 742.835938 304.5625 C 744.65625 303.21875 746.320312 302.199219 747.828125 301.507812 L 749.972656 300.714844 C 751.570312 300.417969 752.523438 300.3125 752.824219 300.398438 C 753.488281 300.402344 754.285156 300.5 755.210938 300.691406 C 759.03125 301.800781 761.378906 302.40625 762.253906 302.515625 L 774.304688 302.492188 C 775.789062 302.605469 777.207031 302.949219 778.566406 303.53125 C 780.074219 304.203125 781.289062 304.925781 782.203125 305.695312 L 789.476562 313.109375 C 790.09375 313.382812 790.613281 313.5 791.039062 313.460938 C 794.046875 312.246094 795.78125 311.90625 796.238281 312.445312 C 796.734375 312.875 797.175781 313.574219 797.5625 314.539062 L 799.433594 320.679688 C 798.351562 315.207031 797.066406 310.375 795.574219 306.183594 C 794.832031 304.089844 794.035156 302.152344 793.191406 300.378906 C 790.988281 296.21875 789.605469 293.917969 789.042969 293.46875 C 788.589844 292.648438 786.808594 291.039062 783.699219 288.640625 C 782.40625 287.777344 781.042969 287.0625 779.609375 286.484375 C 776.753906 285.335938 773.585938 284.753906 770.105469 284.742188 M 726.261719 320.777344 L 725.890625 321.203125 C 724.898438 322.347656 723.882812 323.539062 722.84375 324.777344 L 726.234375 321.527344 C 726.242188 321.332031 726.253906 321.082031 726.273438 320.777344 L 726.261719 320.777344 " fill-opacity="1" fill-rule="nonzero"/><path fill="#000000" d="M 784.523438 275.574219 L 784.910156 275.882812 C 785.957031 276.71875 787.148438 277.679688 788.480469 278.761719 L 788.140625 278.179688 L 787.773438 277.65625 L 787.382812 277.191406 L 786.96875 276.78125 L 786.53125 276.425781 L 786.070312 276.128906 L 785.582031 275.886719 L 785.074219 275.703125 L 784.523438 275.574219 M 764.023438 267.167969 L 761.765625 267.339844 C 755.726562 268.066406 749.4375 270.925781 742.898438 275.914062 C 735.371094 282.609375 729.597656 289.125 725.574219 295.46875 C 721.550781 301.808594 719.277344 307.96875 718.757812 313.957031 L 718.699219 318.414062 L 725.050781 322.5625 C 726.0625 317.632812 727.78125 313.03125 730.207031 308.757812 C 736.28125 298.566406 740.277344 292.953125 742.1875 291.917969 C 742.527344 291.382812 745.410156 290.113281 750.839844 288.109375 C 757.003906 283.675781 760.898438 281.195312 762.527344 280.671875 C 763.875 280.328125 764.996094 280.167969 765.882812 280.199219 C 770.273438 280.949219 772.753906 281.195312 773.316406 280.929688 C 773.703125 281.191406 776.367188 279.542969 781.304688 275.992188 C 782.140625 275.542969 783.210938 275.402344 784.519531 275.570312 C 777.675781 269.632812 770.84375 266.832031 764.023438 267.167969 " fill-opacity="1" fill-rule="nonzero"/><path fill="#000000" d="M 758.757812 251.792969 L 756.976562 251.910156 C 751.265625 252.464844 745.8125 254.929688 740.617188 259.308594 C 734.0625 264.347656 728.769531 270.5625 724.734375 277.949219 C 723.820312 279.21875 722.183594 283.003906 719.832031 289.296875 C 719.0625 291.722656 718.464844 294.238281 718.039062 296.847656 C 716.761719 304.667969 717.042969 313.3125 718.882812 322.769531 L 723.496094 319.855469 C 723.046875 313.148438 723.703125 307.230469 725.464844 302.101562 C 731.171875 288.640625 736.398438 278.925781 741.144531 272.960938 C 741.980469 272.070312 742.839844 271.375 743.730469 270.882812 L 749.792969 269.105469 C 755.183594 265.511719 758.152344 263.757812 758.703125 263.84375 C 759.535156 263.597656 760.347656 263.476562 761.136719 263.476562 C 765.328125 264.195312 767.765625 264.402344 768.453125 264.109375 C 769.191406 263.859375 769.835938 263.46875 770.386719 262.929688 C 773.253906 259.550781 774.992188 257.679688 775.605469 257.3125 C 776.96875 256.671875 778.238281 256.675781 779.417969 257.328125 C 773.652344 254.578125 769.671875 253.046875 767.46875 252.738281 C 764.441406 252.019531 761.535156 251.703125 758.757812 251.792969 " fill-opacity="1" fill-rule="nonzero"/><path fill="#000000" d="M 703.503906 311.296875 L 702.582031 311.335938 C 687.132812 312.828125 673.394531 319.074219 661.367188 330.070312 C 650.234375 340.65625 643.675781 354.433594 641.691406 371.414062 L 646.921875 363.3125 C 647.382812 362.753906 648.589844 362.023438 650.535156 361.113281 C 650.890625 360.878906 651.335938 360.394531 651.878906 359.65625 L 658.410156 346.8125 C 658.679688 346.515625 659.042969 346.222656 659.503906 345.945312 C 660.617188 345.636719 661.996094 345.078125 663.648438 344.273438 C 664.4375 343.847656 665.199219 343.320312 665.929688 342.699219 C 666.765625 342.074219 670.417969 338.40625 676.882812 331.703125 C 677.808594 330.910156 680.765625 329.910156 685.753906 328.703125 C 690.980469 325.535156 694.113281 323.769531 695.148438 323.402344 C 700.984375 322.496094 705.933594 321.363281 709.988281 320.011719 L 716.835938 314.542969 C 715.410156 313.496094 713.742188 312.703125 711.828125 312.160156 C 708.308594 311.382812 705.535156 311.09375 703.503906 311.296875 " fill-opacity="1" fill-rule="nonzero"/><path fill="#000000" d="M 683.375 303.515625 L 681.921875 303.578125 C 676.59375 303.800781 670.699219 304.890625 664.246094 306.847656 L 658.082031 309.257812 L 652.324219 312.351562 L 646.96875 316.136719 L 642.015625 320.609375 L 637.472656 325.765625 L 633.328125 331.613281 C 630.703125 335.738281 628.34375 340.320312 626.257812 345.363281 C 629 341.234375 630.738281 338.929688 631.46875 338.457031 C 632.332031 338.019531 633.089844 337.8125 633.734375 337.839844 C 633.8125 337.734375 635.261719 338.144531 638.082031 339.066406 C 638.402344 339.140625 638.949219 339.015625 639.722656 338.6875 L 646.25 333.023438 C 646.664062 332.746094 647.210938 332.472656 647.890625 332.199219 C 651.160156 331.386719 653.21875 330.71875 654.066406 330.199219 C 654.570312 330.058594 658.410156 327.351562 665.582031 322.070312 C 666.828125 321.246094 667.851562 320.746094 668.652344 320.574219 C 670.34375 320.007812 671.796875 319.675781 673.015625 319.570312 L 680.597656 319.601562 C 692.683594 318.320312 699.660156 317.777344 701.53125 317.96875 L 720.988281 313.761719 L 718.40625 312.078125 C 716.707031 311.011719 715.0625 310.0625 713.46875 309.226562 C 710.277344 307.554688 707.292969 306.34375 704.511719 305.585938 C 698.332031 304.121094 691.285156 303.429688 683.375 303.515625 " fill-opacity="1" fill-rule="nonzero"/><path fill="#000000" d="M 670.628906 281.40625 L 667.128906 281.617188 C 662.539062 282.03125 658.253906 282.957031 654.273438 284.402344 C 652.28125 285.121094 650.367188 285.972656 648.527344 286.953125 C 647.367188 287.390625 644.925781 289.042969 641.199219 291.910156 C 638.605469 294.238281 636.515625 297.195312 634.921875 300.78125 C 632.210938 308.476562 631.28125 312.957031 632.128906 314.222656 C 632.34375 314.425781 632.757812 314.449219 633.371094 314.292969 C 639.527344 310.117188 643.316406 307.785156 644.742188 307.296875 C 645.550781 307.074219 646.503906 306.917969 647.609375 306.832031 C 651.359375 307.019531 653.417969 307.027344 653.785156 306.847656 C 654.082031 307.140625 655.605469 305.121094 658.363281 300.785156 C 658.964844 300.160156 659.527344 299.757812 660.050781 299.574219 C 660.511719 299.386719 661 299.269531 661.515625 299.21875 C 665.007812 299.382812 667.148438 299.277344 667.929688 298.910156 C 668.949219 298.652344 671.519531 297.441406 675.644531 295.277344 C 676.714844 294.894531 678.136719 294.691406 679.90625 294.660156 C 683.363281 294.984375 688.359375 296.832031 694.890625 300.199219 C 695.347656 300.386719 697.273438 300.59375 700.667969 300.828125 C 701.703125 301.136719 703.117188 301.765625 704.917969 302.703125 C 707.554688 304.175781 711.882812 307.867188 717.898438 313.78125 C 712.078125 303.75 704.90625 295.667969 696.375 289.53125 C 693.136719 287.1875 689.574219 285.335938 685.691406 283.976562 C 683.753906 283.296875 681.730469 282.738281 679.628906 282.304688 L 676.417969 281.746094 L 673.085938 281.371094 L 670.628906 281.40625 M 717.917969 313.8125 L 718.234375 314.371094 C 719.078125 315.863281 719.886719 317.394531 720.664062 318.972656 L 720.261719 316.132812 C 719.8125 315.675781 719.203125 315.070312 718.4375 314.308594 L 717.929688 313.8125 L 717.917969 313.8125 " fill-opacity="1" fill-rule="nonzero"/><path fill="#000000" d="M 677.722656 258.148438 L 677.101562 258.179688 C 672.796875 258.601562 669.199219 260.066406 666.316406 262.570312 C 664.300781 264.171875 662.578125 266.15625 661.144531 268.53125 C 659.167969 271.441406 658.355469 273.273438 658.714844 274.023438 C 659.203125 274.597656 659.6875 274.917969 660.167969 274.984375 C 664.382812 274.191406 667.140625 274.027344 668.441406 274.484375 C 669.71875 274.5 672.980469 276.347656 678.238281 280.023438 C 678.886719 280.347656 679.589844 280.582031 680.351562 280.730469 C 680.984375 280.988281 683.855469 280.542969 688.960938 279.394531 C 690.507812 279.421875 691.875 279.894531 693.0625 280.804688 C 693.675781 281.253906 694.339844 281.902344 695.054688 282.753906 C 699.503906 288.875 703.160156 293.328125 706.027344 296.105469 C 706.726562 297.042969 709.191406 301.765625 713.433594 310.277344 L 714.886719 312.378906 L 721.75 320.578125 C 718.441406 302.886719 712.886719 288.453125 705.085938 277.28125 L 701 271.964844 L 696.535156 267.191406 L 691.699219 262.960938 C 690.09375 261.648438 687.472656 260.324219 683.84375 258.992188 C 681.777344 258.363281 679.738281 258.085938 677.722656 258.148438 " fill-opacity="1" fill-rule="nonzero"/><path fill="#000000" d="M 708.46875 240.953125 L 708.429688 240.957031 C 708.21875 241.128906 708.136719 241.433594 708.175781 241.875 C 709.257812 250.011719 709.804688 254.238281 709.816406 254.5625 C 710.421875 260.976562 710.824219 265.53125 711.027344 268.21875 C 711.328125 271.941406 711.617188 275.867188 711.898438 279.996094 C 712.125 282.597656 712.480469 285.726562 712.960938 289.378906 C 713.992188 297.332031 714.789062 302.429688 715.355469 304.664062 C 716.644531 311.324219 717.546875 314.871094 718.054688 315.292969 L 725.699219 312.574219 C 725.105469 309.496094 724.214844 303.777344 723.03125 295.421875 C 722.878906 294.40625 722.609375 292.90625 722.222656 290.917969 C 722.253906 291.023438 722.242188 290.917969 722.191406 290.605469 C 721.867188 288.925781 719.917969 280.535156 716.347656 265.4375 C 715.835938 263.113281 714.675781 258.570312 712.871094 251.804688 C 712.191406 249.386719 711.578125 247.367188 711.023438 245.757812 C 709.921875 242.535156 709.066406 240.933594 708.46875 240.953125 " fill-opacity="1" fill-rule="nonzero"/><path fill="#000000" d="M 588.261719 341.183594 L 586.722656 341.277344 C 578.746094 342.167969 571.109375 345.234375 563.808594 350.476562 C 556.21875 355.738281 550.289062 362.394531 546.023438 370.4375 C 541.757812 378.167969 539.230469 386.675781 538.441406 395.957031 C 537.894531 401.53125 537.78125 406.777344 538.09375 411.699219 C 538.257812 414.664062 538.644531 418.296875 539.253906 422.601562 C 539.421875 423.746094 539.707031 424.386719 540.109375 424.527344 C 540.40625 424.480469 540.796875 423.960938 541.273438 422.960938 C 543.648438 415.816406 545.175781 412.09375 545.847656 411.789062 C 546.472656 410.953125 548.257812 410.414062 551.203125 410.167969 C 551.671875 409.917969 551.996094 409.589844 552.171875 409.183594 C 552.480469 408.410156 552.699219 407.34375 552.835938 405.988281 C 552.898438 399.367188 553.035156 395.6875 553.238281 394.945312 C 553.761719 393.605469 555.25 392.261719 557.695312 390.914062 C 557.898438 390.761719 558.3125 390.117188 558.941406 388.980469 C 559.324219 388.171875 560.296875 384.167969 561.867188 376.964844 C 562.273438 375.535156 562.769531 374.453125 563.355469 373.714844 C 563.824219 373.035156 564.402344 372.46875 565.085938 372.019531 C 569.566406 370.140625 572.15625 368.679688 572.847656 367.636719 C 573.445312 366.894531 574.121094 365.625 574.875 363.832031 C 575.257812 363.097656 576.691406 359.226562 579.171875 352.214844 C 579.730469 351.136719 580.53125 350.054688 581.578125 348.96875 C 582.789062 347.894531 586.339844 347.066406 592.226562 346.488281 L 597.707031 342.730469 C 594.109375 341.484375 590.960938 340.96875 588.261719 341.183594 " fill-opacity="1" fill-rule="nonzero"/><path fill="#000000" d="M 593.140625 344.945312 L 592.070312 345.066406 C 588.386719 345.703125 584.464844 349.210938 580.308594 355.589844 C 577.277344 361.09375 575.058594 368.433594 573.652344 377.605469 C 573.140625 381.511719 572.855469 385.46875 572.796875 389.46875 C 572.769531 391.472656 572.796875 393.484375 572.878906 395.507812 C 572.878906 396.683594 573.105469 399.570312 573.554688 404.167969 C 573.980469 407.777344 574.75 412.207031 575.867188 417.460938 L 577.800781 425.953125 L 580.25 435.683594 C 580.289062 435.773438 580.332031 435.824219 580.386719 435.835938 C 580.457031 435.875 580.542969 435.667969 580.644531 435.210938 C 580.785156 432.824219 580.9375 431.335938 581.101562 430.75 C 581.449219 429.542969 581.769531 428.75 582.0625 428.367188 C 582.621094 427.546875 584.34375 426.644531 587.234375 425.660156 C 588.09375 424.90625 588.53125 424.089844 588.546875 423.214844 C 588.699219 422.191406 588.703125 420.9375 588.566406 419.453125 L 587.253906 408.238281 C 587.300781 407.460938 587.386719 406.902344 587.515625 406.566406 C 588.417969 404.75 588.941406 403.539062 589.082031 402.9375 C 589.320312 402.054688 589.417969 400.5625 589.371094 398.453125 C 589.503906 397.777344 588.886719 392.617188 587.515625 382.976562 C 587.414062 381.832031 587.398438 381.011719 587.472656 380.519531 L 589.089844 374.324219 C 589.242188 373.429688 589.753906 368.972656 590.617188 360.949219 C 590.859375 359.226562 591.230469 357.449219 591.734375 355.625 C 592.324219 353.640625 594.207031 351.191406 597.386719 348.277344 L 596.191406 345.589844 C 594.984375 345.082031 593.96875 344.867188 593.140625 344.945312 " fill-opacity="1" fill-rule="nonzero"/><path fill="#000000" d="M 621.664062 334.859375 L 617.1875 335.242188 C 605.558594 336.578125 596.453125 340.472656 589.878906 346.914062 C 596.875 343.269531 602.15625 341.898438 605.71875 342.804688 C 607.390625 343.296875 608.808594 344.050781 609.96875 345.066406 C 613.378906 348.925781 615.4375 351.066406 616.144531 351.484375 C 624.246094 353.84375 629.097656 355.835938 630.699219 357.460938 C 632.597656 359.402344 633.820312 361.046875 634.363281 362.402344 C 634.921875 363.507812 635.984375 366.6875 637.546875 371.933594 C 638.007812 373.019531 638.503906 373.84375 639.039062 374.410156 C 639.617188 375.046875 640.332031 375.488281 641.1875 375.726562 C 646.101562 376.441406 649 376.988281 649.886719 377.367188 C 651.636719 378.035156 652.941406 379.121094 653.800781 380.621094 C 654.972656 382.578125 655.488281 387.953125 655.339844 396.746094 C 655.699219 397.660156 656.070312 398.261719 656.453125 398.554688 C 660.308594 399.558594 662.378906 400.605469 662.65625 401.695312 C 663.246094 402.5625 663.359375 405.632812 663 410.910156 C 663.101562 411.496094 663.390625 411.753906 663.875 411.679688 L 664.164062 411.628906 L 666.5 401.886719 L 667.964844 392.773438 L 668.558594 384.292969 L 668.28125 376.4375 L 667.136719 369.21875 L 665.121094 362.628906 L 662.234375 356.667969 L 658.476562 351.339844 L 653.847656 346.640625 C 652.867188 345.582031 649.5625 343.472656 643.933594 340.3125 C 637.050781 336.894531 629.628906 335.078125 621.664062 334.859375 " fill-opacity="1" fill-rule="nonzero"/><path fill="#000000" d="M 621.226562 313.90625 L 620.96875 313.917969 C 619.65625 313.941406 618.183594 314.238281 616.550781 314.808594 C 615.023438 315.296875 613.539062 315.90625 612.097656 316.628906 C 610.65625 317.355469 609.257812 318.199219 607.90625 319.15625 L 605.910156 320.683594 C 604.605469 321.761719 603.339844 322.953125 602.121094 324.265625 C 596.992188 329.785156 594.441406 336.183594 594.472656 343.460938 C 595.539062 341.523438 596.347656 340.296875 596.898438 339.777344 L 600.714844 336.226562 C 602.65625 334.527344 604.273438 333.304688 605.566406 332.558594 C 606.214844 332.183594 606.777344 331.929688 607.261719 331.792969 L 608.289062 331.609375 C 608.894531 331.484375 609.730469 331.515625 610.800781 331.695312 L 612.527344 332.175781 L 615.824219 333.324219 C 616.683594 333.519531 617.335938 333.578125 617.78125 333.496094 C 618.230469 333.441406 618.796875 333.242188 619.484375 332.898438 C 623.703125 330.515625 626.191406 329.183594 626.945312 328.910156 C 629.3125 327.992188 631.398438 327.65625 633.203125 327.890625 C 634.554688 327.976562 636.363281 328.644531 638.632812 329.890625 C 640.039062 330.738281 641.953125 332.269531 644.375 334.492188 C 644.996094 334.929688 645.355469 335.078125 645.460938 334.933594 C 644.460938 332.3125 643.042969 329.753906 641.207031 327.257812 C 640.292969 326.003906 639.28125 324.761719 638.164062 323.53125 C 637.734375 322.902344 635.835938 321.082031 632.46875 318.0625 C 630.886719 316.777344 629.265625 315.785156 627.605469 315.097656 C 626.777344 314.75 625.941406 314.480469 625.09375 314.285156 L 623.820312 314.046875 C 622.964844 313.925781 622.097656 313.878906 621.226562 313.90625 M 594.460938 343.484375 L 594.289062 343.820312 C 593.824219 344.726562 593.355469 345.742188 592.875 346.867188 L 594.484375 345.070312 C 594.46875 344.417969 594.464844 343.890625 594.472656 343.484375 L 594.460938 343.484375 " fill-opacity="1" fill-rule="nonzero"/><path fill="#000000" d="M 580.148438 312.34375 L 580.054688 312.359375 C 579.757812 312.527344 579.640625 312.996094 579.695312 313.757812 C 579.761719 314.199219 580.027344 315.019531 580.488281 316.207031 C 585.621094 329.289062 589.769531 339.019531 592.933594 345.402344 C 593.515625 346.476562 593.9375 347.074219 594.191406 347.207031 L 603.523438 351.957031 C 595.460938 335.578125 590.558594 325.847656 588.816406 322.761719 C 587.355469 320.171875 585.703125 317.757812 583.863281 315.523438 C 581.808594 313.332031 580.570312 312.273438 580.148438 312.34375 " fill-opacity="1" fill-rule="nonzero"/><path fill="#000000" d="M 595.472656 346.496094 L 594.613281 347.3125 C 592.414062 349.800781 590.96875 354.808594 590.285156 362.335938 L 590.148438 365.25 C 590.085938 367.183594 590.089844 369.089844 590.152344 370.976562 C 590.28125 374.746094 590.664062 378.421875 591.292969 382 C 592.3125 387.769531 593.9375 393.234375 596.164062 398.390625 C 597.664062 401.886719 599.511719 405.625 601.707031 409.613281 C 603.21875 412.390625 604.355469 414.4375 605.121094 415.75 C 605.5 416.382812 605.804688 416.628906 606.035156 416.492188 C 606.105469 416.414062 606.152344 416.257812 606.175781 416.03125 L 604.765625 408.644531 C 604.566406 407.253906 604.472656 406.132812 604.488281 405.277344 C 604.511719 404.457031 605.085938 403.0625 606.207031 401.09375 C 606.324219 400.738281 606.371094 400.25 606.34375 399.621094 C 606.25 398.785156 606.109375 398.019531 605.921875 397.324219 L 603.65625 388.984375 C 603.578125 388.285156 603.773438 386.980469 604.246094 385.070312 C 604.289062 384.589844 604.230469 383.78125 604.074219 382.636719 C 603.933594 381.578125 603.527344 379.773438 602.851562 377.226562 C 601.238281 371.824219 599.195312 364.5625 596.71875 355.445312 C 596.574219 354.941406 596.496094 354.183594 596.480469 353.171875 C 596.496094 352.605469 596.574219 352.074219 596.714844 351.570312 L 595.472656 346.496094 " fill-opacity="1" fill-rule="nonzero"/><path fill="#000000" d="M 601.320312 342.980469 L 600.664062 343.019531 C 598.925781 343.179688 597.304688 343.734375 595.792969 344.691406 L 598.609375 343.863281 C 603.226562 349.292969 606.058594 352.46875 607.109375 353.394531 C 607.890625 354.363281 610.785156 356.316406 615.789062 359.253906 C 616.789062 360.007812 617.578125 360.753906 618.148438 361.488281 C 618.515625 361.597656 619.964844 364.488281 622.503906 370.15625 C 624.09375 372.511719 625.070312 374.070312 625.425781 374.835938 C 628.003906 382.070312 629.46875 386.035156 629.828125 386.722656 C 630.34375 387.582031 630.691406 388.042969 630.867188 388.113281 C 632.085938 388.503906 632.789062 388.863281 632.980469 389.1875 L 637.203125 397.847656 C 637.910156 399.125 638.480469 399.71875 638.914062 399.625 C 639.308594 399.089844 639.253906 397.378906 638.746094 394.492188 C 637.636719 387.800781 636.648438 383 635.773438 380.082031 C 633.675781 373.050781 631.117188 367.117188 628.089844 362.289062 C 625.550781 358.175781 620.765625 353.335938 613.746094 347.765625 C 611.894531 346.441406 610.121094 345.394531 608.425781 344.617188 L 605.941406 343.660156 C 604.324219 343.160156 602.785156 342.933594 601.320312 342.980469 " fill-opacity="1" fill-rule="nonzero"/><path fill="#000000" d="M 481.695312 333.214844 L 479.402344 333.359375 C 473.476562 333.925781 469.058594 335.933594 466.152344 339.386719 L 470.984375 339.710938 C 475.082031 339.109375 478.929688 338.847656 482.527344 338.921875 C 485.296875 339.027344 487.398438 339.441406 488.835938 340.171875 C 490.460938 341.175781 491.609375 342.335938 492.28125 343.65625 C 493.9375 348.316406 494.957031 350.902344 495.347656 351.410156 C 497.609375 353.480469 499.296875 355.269531 500.414062 356.773438 C 501.1875 358.292969 501.671875 359.589844 501.859375 360.664062 C 502.207031 367.726562 502.5 371.679688 502.746094 372.519531 C 502.921875 373.289062 503.179688 374.078125 503.519531 374.890625 L 505.726562 379.273438 C 506.035156 380.128906 506.234375 381.074219 506.324219 382.121094 C 506.359375 386.027344 505.625 392.589844 504.117188 401.804688 C 504.027344 403.449219 504.117188 404.324219 504.386719 404.429688 C 506.714844 399.480469 508.664062 394.496094 510.226562 389.480469 C 512.019531 383.191406 512.980469 379.410156 513.109375 378.132812 C 515.230469 367.84375 515.4375 359.675781 513.726562 353.628906 C 511.984375 347.253906 508.042969 341.945312 501.894531 337.699219 C 498.945312 335.875 495.5625 334.609375 491.753906 333.910156 C 488.808594 333.40625 485.453125 333.175781 481.695312 333.214844 " fill-opacity="1" fill-rule="nonzero"/><path fill="#000000" d="M 504.476562 319.925781 L 504.050781 319.941406 C 488.203125 321.027344 476.445312 325.964844 468.773438 334.742188 L 481.796875 328.925781 C 486.03125 327.519531 489.792969 327.007812 493.082031 327.390625 C 494.335938 327.628906 497.089844 328.917969 501.347656 331.265625 C 507.613281 332.324219 510.957031 333.140625 511.378906 333.722656 C 512.183594 333.988281 514.214844 336.46875 517.46875 341.160156 C 521.4375 343.539062 523.703125 345.148438 524.257812 345.984375 C 525.363281 347.1875 526.175781 349.160156 526.699219 351.90625 C 527.5625 362.269531 528.398438 368.898438 529.207031 371.800781 C 529.101562 373.988281 528.792969 376.617188 528.285156 379.691406 C 527.253906 385.375 526.304688 389.914062 525.433594 393.304688 C 525.375 393.75 525.4375 393.949219 525.632812 393.898438 L 530.410156 383.886719 L 534.03125 374.574219 L 536.59375 365.945312 L 538.089844 358.003906 L 538.523438 350.742188 L 537.894531 344.167969 L 536.203125 338.28125 L 533.449219 333.074219 C 531.027344 329.753906 528.359375 327.046875 525.441406 324.957031 C 522.382812 322.878906 518.789062 321.441406 514.664062 320.644531 C 509.269531 319.925781 505.875 319.683594 504.476562 319.925781 " fill-opacity="1" fill-rule="nonzero"/><path fill="#000000" d="M 468.824219 336.273438 L 468.5625 336.285156 L 467.636719 336.363281 L 472.003906 336.660156 C 472.824219 337.640625 473.457031 338.542969 473.90625 339.371094 C 474.242188 340.050781 474.421875 340.445312 474.4375 340.558594 L 476.394531 348.839844 C 477.011719 350.484375 477.863281 352.414062 478.957031 354.625 C 479.292969 355.65625 479.46875 356.582031 479.480469 357.398438 C 479.480469 358.117188 479.40625 358.742188 479.25 359.277344 L 476.382812 367.910156 C 476.175781 368.664062 475.992188 369.714844 475.839844 371.066406 C 475.792969 371.609375 475.792969 372.242188 475.847656 372.957031 C 476.347656 375.632812 476.582031 377.921875 476.554688 379.8125 C 476.515625 380.792969 475.945312 385.261719 474.832031 393.21875 C 474.789062 393.925781 474.777344 394.730469 474.804688 395.628906 C 475.230469 398.398438 475.398438 399.875 475.308594 400.066406 L 474.574219 402.894531 L 470.765625 413.714844 C 470.503906 414.835938 470.566406 415.339844 470.953125 415.21875 C 473.820312 411.820312 476.433594 408.105469 478.789062 404.085938 C 479.988281 402.074219 481.136719 399.980469 482.242188 397.808594 C 482.851562 396.820312 484.402344 393.382812 486.894531 387.496094 C 488.234375 384.015625 489.25 380.539062 489.945312 377.0625 C 490.296875 375.324219 490.5625 373.585938 490.75 371.847656 C 490.9375 370.113281 491.046875 368.375 491.074219 366.636719 L 491.054688 364.035156 C 491.007812 360.820312 490.503906 357.71875 489.542969 354.726562 C 489.0625 353.230469 488.46875 351.761719 487.761719 350.324219 C 487.550781 349.570312 486.230469 347.472656 483.804688 344.03125 C 482.667969 342.847656 481.535156 341.796875 480.410156 340.882812 C 479.839844 340.257812 478.167969 339.191406 475.390625 337.6875 C 473.175781 336.675781 470.988281 336.203125 468.824219 336.273438 " fill-opacity="1" fill-rule="nonzero"/><path fill="#000000" d="M 462.617188 330.980469 L 459.988281 331.300781 L 457.429688 332.089844 C 455.753906 332.769531 454.125 333.761719 452.546875 335.0625 C 450.96875 336.363281 449.441406 337.976562 447.96875 339.902344 L 445.792969 343.023438 C 444.367188 345.257812 442.992188 347.804688 441.667969 350.664062 C 441.09375 352.105469 440.582031 353.59375 440.132812 355.128906 L 439.511719 357.46875 C 438.011719 364.257812 437.46875 370.867188 437.886719 377.296875 C 437.84375 377.824219 438.183594 380.960938 438.902344 386.699219 C 439.589844 391.652344 440.582031 397.636719 441.886719 404.652344 C 441.996094 397.824219 442.226562 393.746094 442.585938 392.421875 C 442.597656 391.023438 444.0625 389.265625 446.976562 387.140625 C 447.15625 386.871094 447.316406 386.367188 447.457031 385.636719 C 447.582031 384.695312 447.597656 383.257812 447.511719 381.324219 L 446.597656 367.996094 C 446.570312 367.355469 446.59375 366.738281 446.667969 366.148438 C 449.214844 354.300781 450.921875 347.140625 451.785156 344.667969 C 452.597656 342.414062 453.34375 340.796875 454.027344 339.816406 L 455.285156 338.117188 C 456.1875 337.066406 457.210938 336.179688 458.363281 335.464844 C 459.511719 334.746094 460.785156 334.195312 462.183594 333.808594 L 464.375 333.355469 C 466.726562 333.285156 468.832031 333.066406 470.691406 332.699219 C 468.492188 331.605469 465.800781 331.035156 462.617188 330.980469 " fill-opacity="1" fill-rule="nonzero"/><path fill="#000000" d="M 527.496094 277.554688 L 523.847656 277.890625 C 506.992188 280 492.757812 286.96875 481.144531 298.800781 C 477.496094 302.894531 475.425781 305.429688 474.933594 306.40625 C 471.960938 310.820312 469.699219 314.859375 468.148438 318.519531 C 466.519531 322.929688 465.757812 325.464844 465.859375 326.121094 L 465.496094 338.269531 C 465.667969 336.792969 466.980469 333.070312 469.429688 327.105469 C 470.5 324.800781 471.707031 322.617188 473.042969 320.550781 C 475.609375 316.515625 478.929688 312.765625 483 309.304688 C 484.121094 308.523438 487.128906 307.5 492.027344 306.242188 C 500.339844 300.800781 504.933594 298.113281 505.808594 298.171875 C 507.21875 297.730469 508.542969 297.53125 509.785156 297.578125 C 514.375 298.582031 517.285156 298.984375 518.519531 298.789062 C 519.121094 298.648438 519.933594 298.207031 520.957031 297.46875 C 525.945312 293.023438 529.007812 290.535156 530.144531 290.003906 C 531.445312 289.417969 532.605469 289.160156 533.617188 289.238281 C 534.4375 289.339844 535.445312 289.785156 536.640625 290.578125 C 536.789062 290.621094 536.910156 290.59375 536.996094 290.5 C 537.046875 290.46875 537.105469 290.34375 537.164062 290.121094 C 536.882812 288.367188 536.5 286.800781 536.027344 285.410156 C 535.550781 284.023438 534.976562 282.820312 534.308594 281.796875 C 533.640625 280.777344 532.878906 279.9375 532.019531 279.28125 L 530.65625 278.433594 C 529.699219 277.957031 528.644531 277.664062 527.496094 277.554688 " fill-opacity="1" fill-rule="nonzero"/><path fill="#000000" d="M 520.945312 300.0625 L 520.4375 300.082031 C 519.070312 300.140625 517.636719 300.273438 516.144531 300.476562 L 508.910156 301.875 L 502.15625 303.832031 L 495.878906 306.347656 L 490.085938 309.421875 L 484.773438 313.054688 L 479.941406 317.246094 L 475.589844 321.996094 L 471.71875 327.304688 L 468.328125 333.171875 L 468.085938 338.484375 C 469.816406 335.894531 471.5 333.566406 473.132812 331.507812 C 474.007812 330.148438 476.351562 327.652344 480.152344 324.03125 C 483.128906 321.503906 485.910156 320.035156 488.496094 319.632812 C 495.113281 318.953125 501.117188 318.128906 506.507812 317.152344 C 508.390625 316.925781 510.117188 316.851562 511.683594 316.929688 C 513.851562 317.074219 515.566406 317.363281 516.832031 317.804688 L 519.792969 318.914062 L 524.675781 321.03125 C 525.128906 321.246094 525.953125 321.398438 527.144531 321.488281 C 527.386719 321.664062 530.160156 320.699219 535.46875 318.601562 C 536.375 318.339844 537.316406 318.234375 538.289062 318.285156 C 539.59375 318.371094 540.71875 318.75 541.664062 319.429688 C 542.59375 320.070312 543.707031 321.246094 545.011719 322.964844 C 545.414062 323.316406 545.683594 323.460938 545.820312 323.402344 C 543.382812 314.167969 540.453125 308.035156 537.027344 305.003906 C 533.234375 301.472656 527.875 299.828125 520.945312 300.0625 " fill-opacity="1" fill-rule="nonzero"/><path fill="#000000" d="M 431.859375 288.984375 L 431.3125 289.023438 C 430.378906 289.035156 429.238281 289.472656 427.894531 290.335938 C 426.683594 291.433594 425.808594 292.371094 425.265625 293.140625 C 423.894531 294.914062 422.722656 296.9375 421.746094 299.214844 C 420.617188 302.132812 419.992188 304.019531 419.867188 304.878906 C 419.96875 305 420.574219 304.871094 421.679688 304.492188 C 421.9375 304.511719 422.226562 304.609375 422.542969 304.785156 L 425.929688 308.378906 C 426.738281 308.96875 427.550781 309.386719 428.371094 309.636719 C 429.152344 309.859375 429.78125 309.96875 430.253906 309.960938 C 433.804688 309.8125 436.335938 309.789062 437.839844 309.890625 C 438.78125 309.929688 439.699219 310.066406 440.59375 310.296875 C 442.078125 310.605469 445.648438 312.015625 451.308594 314.523438 C 452.484375 315.257812 453.710938 316.484375 454.988281 318.203125 C 455.761719 319.253906 458.742188 323.777344 463.929688 331.773438 L 473.1875 336.382812 C 472.65625 334.546875 471.980469 332.636719 471.167969 330.65625 C 470.933594 329.757812 469.398438 326.625 466.5625 321.265625 C 462.101562 313.558594 457.90625 307.460938 453.976562 302.96875 C 450.265625 298.875 445.964844 295.335938 441.066406 292.347656 C 437.574219 290.0625 434.503906 288.941406 431.859375 288.984375 " fill-opacity="1" fill-rule="nonzero"/><path fill="#000000" d="M 459.078125 327.21875 L 456.96875 327.367188 C 452.714844 327.820312 448.28125 329.238281 443.660156 331.617188 C 440.816406 332.828125 437.417969 335.21875 433.464844 338.78125 C 430.027344 342.019531 427.070312 345.785156 424.589844 350.078125 C 422.355469 353.539062 420.109375 359.191406 417.859375 367.027344 C 413.632812 384.683594 417.4375 407.097656 429.269531 434.261719 C 427.796875 427.386719 426.863281 420.972656 426.476562 415.019531 C 426.507812 413.355469 427.699219 410.988281 430.046875 407.917969 C 430.324219 406.984375 430.46875 406.027344 430.488281 405.046875 C 430.699219 402.8125 429.925781 393.613281 428.171875 377.453125 C 428.074219 376.425781 428.078125 374.519531 428.1875 371.734375 C 428.445312 368.558594 430.308594 360.75 433.78125 348.308594 C 435.296875 344.195312 438.03125 340.917969 441.980469 338.484375 C 443.953125 337.269531 446.234375 336.261719 448.816406 335.464844 C 455.804688 333.839844 460.363281 333.117188 462.488281 333.296875 L 466.546875 328.042969 C 464.675781 327.476562 462.1875 327.199219 459.078125 327.21875 " fill-opacity="1" fill-rule="nonzero"/><path fill="#000000" d="M 468.121094 268.246094 L 468.074219 268.269531 C 467.980469 268.359375 467.894531 268.710938 467.808594 269.320312 L 466.789062 277.898438 L 464.890625 292.769531 C 464.597656 295.25 464.367188 297.488281 464.203125 299.476562 C 464.140625 300.050781 464.054688 301.40625 463.941406 303.539062 C 463.925781 303.367188 463.890625 305.09375 463.84375 308.722656 L 463.898438 311.578125 L 464.054688 314.347656 C 464.472656 319.796875 465.503906 324.734375 467.144531 329.152344 L 471.761719 331.375 C 472.570312 320.074219 472.796875 310.632812 472.445312 303.046875 C 472.238281 299.359375 472.035156 296.167969 471.835938 293.464844 C 471.464844 288.835938 471.191406 285.886719 471.011719 284.625 C 470.933594 283.742188 470.289062 279.15625 469.074219 270.859375 C 468.71875 269.296875 468.402344 268.425781 468.121094 268.246094 " fill-opacity="1" fill-rule="nonzero"/><path fill="#000000" d="M 432.945312 314.644531 L 431.085938 314.746094 C 426.167969 315.117188 421.554688 316.332031 417.246094 318.382812 L 411.964844 321.359375 L 407.285156 324.886719 L 403.203125 328.964844 L 399.722656 333.59375 L 396.84375 338.769531 L 394.5625 344.5 L 392.878906 350.777344 C 391.957031 355.144531 391.4375 359.878906 391.316406 364.980469 L 394.175781 353.25 C 394.671875 351.738281 395.171875 350.773438 395.671875 350.355469 C 396.140625 349.917969 396.636719 349.703125 397.164062 349.707031 C 397.4375 349.625 398.730469 349.921875 401.046875 350.59375 C 401.472656 350.640625 402.023438 350.429688 402.703125 349.960938 C 403.050781 349.730469 403.515625 349.089844 404.097656 348.039062 L 407.738281 340.160156 C 408.292969 339.136719 408.746094 338.492188 409.097656 338.230469 C 409.945312 337.523438 412.050781 337.125 415.40625 337.035156 L 417.726562 336.101562 C 418.621094 335.660156 421.3125 333.511719 425.800781 329.660156 C 426.753906 328.941406 427.789062 328.296875 428.914062 327.722656 C 429.769531 327.332031 430.6875 327.035156 431.667969 326.828125 L 437.84375 326.117188 C 441.390625 325.269531 444.019531 324.699219 445.730469 324.398438 C 446.917969 324.152344 448.226562 324.074219 449.648438 324.167969 C 452.324219 324.386719 456.804688 325.773438 463.09375 328.328125 L 468.53125 329.402344 C 464.75 324.984375 460.046875 321.496094 454.414062 318.945312 C 449.542969 317 446.492188 315.960938 445.273438 315.820312 C 441.890625 315.003906 437.78125 314.613281 432.945312 314.644531 " fill-opacity="1" fill-rule="nonzero"/><path fill="#000000" d="M 465.316406 322.714844 L 465.441406 322.878906 C 465.773438 323.3125 466.109375 323.78125 466.449219 324.28125 L 466.972656 323.980469 L 467.511719 323.710938 L 468.0625 323.464844 L 468.632812 323.246094 L 469.214844 323.054688 L 469.8125 322.894531 L 470.425781 322.757812 L 471.054688 322.652344 L 471.699219 322.570312 L 465.316406 322.714844 M 466.441406 324.285156 L 465.160156 325.191406 C 462.699219 327.183594 460.84375 330.277344 459.59375 334.476562 L 459.023438 336.667969 C 458.613281 338.613281 458.390625 339.835938 458.359375 340.335938 C 458.171875 342.046875 458.25 343.714844 458.59375 345.335938 C 458.933594 346.960938 459.539062 348.539062 460.410156 350.074219 C 460.824219 350.75 461.257812 351.347656 461.714844 351.871094 C 462.167969 352.394531 462.644531 352.839844 463.144531 353.207031 L 463.910156 353.703125 C 464.949219 354.285156 466.078125 354.558594 467.292969 354.523438 C 468.441406 354.300781 469.457031 353.953125 470.335938 353.480469 L 471.554688 352.679688 L 472.574219 351.691406 L 473.386719 350.511719 L 474 349.148438 C 474.675781 347.085938 474.824219 344.765625 474.4375 342.183594 C 474.441406 341.925781 474.179688 340.878906 473.660156 339.039062 C 473.179688 337.507812 472.523438 335.789062 471.6875 333.890625 C 469.46875 329.222656 467.71875 326.019531 466.441406 324.285156 " fill-opacity="1" fill-rule="nonzero"/></svg>